<svg id="Outline" height="512" viewBox="0 0 512 512" width="512" xmlns="http://www.w3.org/2000/svg"><path d="m488 144h-96v-72a32.036 32.036 0 0 0 -32-32h-208a32.036 32.036 0 0 0 -32 32v72h-96a8 8 0 0 0 -8 8v152a32.057 32.057 0 0 0 24 30.987v105.013a32.036 32.036 0 0 0 32 32h368a32.036 32.036 0 0 0 32-32v-105.013a32.057 32.057 0 0 0 24-30.987v-152a8 8 0 0 0 -8-8zm-136 0v-16h24v16zm-16 0h-160v-48h160zm-184-88h208a16.019 16.019 0 0 1 16 16v40h-24v-24a8 8 0 0 0 -8-8h-176a8 8 0 0 0 -8 8v24h-24v-40a16.019 16.019 0 0 1 16-16zm-16 72h24v16h-24zm304 328h-368a16.019 16.019 0 0 1 -16-16v-104h48v16h-16v16h16v16a32 32 0 0 0 64 0v-16h16v-16h-16v-16h176v16h-16v16h16v16a32 32 0 0 0 64 0v-16h16v-16h-16v-16h48v104a16.019 16.019 0 0 1 -16 16zm-320-84.3a31.885 31.885 0 0 0 32 0v12.3a16 16 0 0 1 -32 0zm32-27.7a16 16 0 0 1 -32 0v-48h32zm208 27.7a31.885 31.885 0 0 0 32 0v12.3a16 16 0 0 1 -32 0zm32-27.7a16 16 0 0 1 -32 0v-48h32zm88-40a16.019 16.019 0 0 1 -16 16h-56v-32a8 8 0 0 0 -8-8h-48a8 8 0 0 0 -8 8v32h-176v-32a8 8 0 0 0 -8-8h-48a8 8 0 0 0 -8 8v32h-56a16.019 16.019 0 0 1 -16-16v-144h448z"/><path d="m96 232h16v-16h320v-16h-352v16h16z"/></svg>